<svg xmlns="http://www.w3.org/2000/svg" width="1200" height="300" viewBox="0 0 1200 300" role="img" aria-labelledby="t d">
<title id="t">Vivek Kumar developer ID dashboard</title>
<desc id="d">Developer profile card with portrait, barcode, metrics and repository data.</desc>
<defs><linearGradient id="g" x1="0" x2="1"><stop stop-color="#247bff"/><stop offset="1" stop-color="#ff354f"/></linearGradient></defs>
<rect width="1200" height="300" rx="26" fill="#070b16"/>
<rect x="28" y="28" width="1144" height="244" rx="20" fill="#0d1729" stroke="#263b5f"/>
<rect x="50" y="50" width="14" height="196" rx="7" fill="url(#g)"/>
<circle cx="170" cy="112" r="52" fill="#111d33" stroke="#247bff" stroke-width="3"/>
<text x="136" y="122" fill="#f7f8fb" font-family="Arial,Helvetica,sans-serif" font-size="30" font-weight="800">VK</text>
<text x="245" y="88" fill="#8ea5c9" font-family="Arial,Helvetica,sans-serif" font-size="13" font-weight="700" letter-spacing="2">ENGINEERING ID</text>
<text x="245" y="124" fill="#f7f8fb" font-family="Arial,Helvetica,sans-serif" font-size="31" font-weight="800">Vivek Kumar</text>
<text x="245" y="151" fill="#247bff" font-family="Arial,Helvetica,sans-serif" font-size="16" font-weight="700">Java Backend • AI Applications</text>
<g transform="translate(245 185)" fill="#cbd6e8" font-family="Arial,Helvetica,sans-serif" font-size="13">
 <text>PROJECTS</text><text x="105">FOCUS</text><text x="210">GRADUATION</text>
 <text y="24" fill="#f7f8fb" font-size="18" font-weight="800">CodeVault</text><text x="105" y="24" fill="#f7f8fb" font-size="18" font-weight="800">Backend</text><text x="210" y="24" fill="#f7f8fb" font-size="18" font-weight="800">2027</text>
</g>
<g transform="translate(785 78)" stroke="#8ea5c9" stroke-width="3">
 <path d="M0 0v120M10 0v120M18 0v120M30 0v120M43 0v120M49 0v120M63 0v120M74 0v120M90 0v120M103 0v120M111 0v120M125 0v120M141 0v120M149 0v120M165 0v120M180 0v120"/>
</g>
<text x="780" y="225" fill="#8ea5c9" font-family="monospace" font-size="11">ID // BACKEND-ENGINEER-2027</text>
</svg>